<?xml version="1.0" encoding="utf-8"?>
<!-- Generator: Adobe Illustrator 16.0.4, SVG Export Plug-In . SVG Version: 6.00 Build 0)  -->
<!DOCTYPE svg PUBLIC "-//W3C//DTD SVG 1.1//EN" "http://www.w3.org/Graphics/SVG/1.1/DTD/svg11.dtd">
<svg version="1.1" id="Capa_1" xmlns="http://www.w3.org/2000/svg" xmlns:xlink="http://www.w3.org/1999/xlink" x="0px" y="0px"
	 width="512px" height="512px" viewBox="0 0 512 512" enable-background="new 0 0 512 512" xml:space="preserve">
<g>
	<path fill="#FFFFFF" d="M129.139,223.29L55.873,96.389C102.782,37.657,174.99,0.019,256,0.019
		c93.717,0,175.654,50.368,220.266,125.5H267.381c-3.752-0.325-7.546-0.5-11.381-0.5
		C195.063,125.019,143.711,166.841,129.139,223.29z M347.652,162.519h146.729c11.371,28.965,17.617,60.502,17.617,93.5
		c0,140.413-113.051,254.402-253.094,255.963l104.696-181.34C378.344,309.454,387,283.729,387,256.019
		C387,219.434,371.918,186.309,347.652,162.519z M163,256.019c0-51.28,41.72-93,93-93c51.279,0,93,41.72,93,93
		c0,51.279-41.721,93-93,93C204.72,349.02,163,307.298,163,256.019z M291.091,382.239l-73.289,126.938
		C94.536,490.736,0,384.421,0,256.019c0-45.609,11.942-88.423,32.848-125.512l104.515,181.027
		c20.934,44.555,66.238,75.483,118.637,75.483C268.15,387.02,279.918,385.35,291.091,382.239z"/>
</g>
</svg>
