<?xml version="1.0" encoding="utf-8"?>
<!-- Generator: Adobe Illustrator 16.0.4, SVG Export Plug-In . SVG Version: 6.00 Build 0)  -->
<!DOCTYPE svg PUBLIC "-//W3C//DTD SVG 1.1//EN" "http://www.w3.org/Graphics/SVG/1.1/DTD/svg11.dtd">
<svg version="1.1" id="Layer_1" xmlns="http://www.w3.org/2000/svg" xmlns:xlink="http://www.w3.org/1999/xlink" x="0px" y="0px"
	 width="32px" height="32px" viewBox="0 0 32 32" enable-background="new 0 0 32 32" xml:space="preserve">
<g>
	<path fill="#FFFFFF" d="M9.139,17.961H7.178V31.68h1.961c0.538,0,0.979-0.441,0.979-0.979v-11.76
		C10.122,18.4,9.68,17.961,9.139,17.961z"/>
	<path fill="#FFFFFF" d="M22.861,17.961c-0.538,0-0.979,0.442-0.979,0.98v11.76c0,0.537,0.441,0.979,0.979,0.979h1.961V17.961
		H22.861z"/>
	<path fill="#FFFFFF" d="M31.68,16c0-8.659-7.021-15.68-15.68-15.68S0.32,7.341,0.32,16c0,1.882,0.333,3.684,0.938,5.354
		c-0.595,1.018-0.938,2.201-0.938,3.466c0,3.456,2.557,6.313,5.882,6.79V18.032c-0.976,0.141-1.888,0.486-2.688,0.991
		c-0.163-0.818-0.253-1.664-0.253-2.531C3.261,9.456,8.963,3.753,16,3.753c7.037,0,12.739,5.703,12.739,12.739
		c0,0.867-0.087,1.715-0.253,2.531c-0.8-0.505-1.709-0.851-2.688-0.991v13.581c3.324-0.478,5.881-3.338,5.881-6.794
		c0-1.265-0.342-2.448-0.938-3.466C31.348,19.684,31.68,17.882,31.68,16L31.68,16z"/>
</g>
</svg>
